<?xml version="1.0" standalone="no"?>
<!DOCTYPE svg PUBLIC "-//W3C//DTD SVG 1.1//EN" "http://www.w3.org/Graphics/SVG/1.1/DTD/svg11.dtd">
<svg t="1594028558638" class="icon" viewBox="0 0 1024 1024" version="1.1"
    xmlns="http://www.w3.org/2000/svg" p-id="1452"
    xmlns:xlink="http://www.w3.org/1999/xlink" width="300" height="300">
    <defs>
        <style type="text/css"></style>
    </defs>
    <path d="M170.709333 895.957333c-3.989333-179.306667 234.666667-234.645333 234.666667-234.645333h213.333333s234.858667 50.005333 234.666667 234.645333v42.666667h-682.666667v-42.666667z" fill="#E53935" p-id="1453"></path>
    <path d="M853.333333 895.957333c3.989333-179.306667-234.666667-234.645333-234.666666-234.645333h-42.666667s149.333333 70.869333 149.333333 277.312h128v-42.666667zM170.709333 895.957333c-3.989333-179.306667 234.666667-234.645333 234.666667-234.645333h42.666667s-149.333333 70.869333-149.333334 277.312h-128v-42.666667z" fill="#B71C1C" p-id="1454"></path>
    <path d="M405.333333 661.333333v-128h213.333334v128s-25.450667 64-106.666667 64-106.666667-64-106.666667-64zM746.666667 405.333333a42.666667 42.666667 0 1 1-85.312 0.021334A42.666667 42.666667 0 0 1 746.666667 405.333333m-384 0a42.666667 42.666667 0 1 0-85.312-0.021333A42.666667 42.666667 0 0 0 362.666667 405.333333" fill="#FB8C00" p-id="1455"></path>
    <path d="M704 277.333333c0-162.88-384-189.717333-384 0v149.333334a192 192 0 0 0 192 192c106.069333 0 192-85.952 192-192v-149.333334z" fill="#FFA726" p-id="1456"></path>
    <path d="M682.666667 128c-81.6 53.077333 42.666667 25.365333 42.666666 192v48.768L682.666667 405.333333v-128s-52.437333-39.125333-222.634667-42.432a39.637333 39.637333 0 0 1-34.368-21.653333l-17.685333-34.389333-2.517334 43.285333a40.149333 40.149333 0 0 1-25.6 34.944C348.693333 269.141333 341.333333 277.333333 341.333333 277.333333v128l-42.666666-37.162666V320c0-85.866667 33.152-170.666667 106.666666-170.666667 0 0 1.664-64 72.213334-64C569.706667 85.333333 682.666667 128 682.666667 128z" fill="#607D8B" p-id="1457"></path>
    <path d="M576 405.333333a21.354667 21.354667 0 1 1 21.333333 21.333334c-11.776 0-21.333333-9.578667-21.333333-21.333334m-170.666667 0a21.354667 21.354667 0 1 0 21.333334-21.333333c-11.776 0-21.333333 9.578667-21.333334 21.333333" fill="#37474F" p-id="1458"></path>
    <path d="M656.426667 150.997333c-0.170667 0.128-0.469333 0-0.618667 0.192-16.192 19.733333-27.968 64.490667-27.968 64.490667s44.096-9.386667 73.749333 1.386667c-23.168-39.893333-53.738667-49.109333-45.162666-66.069334z" fill="#455A64" p-id="1459"></path>
    <path d="M503.253333 938.666667h42.666667L576 853.333333v-42.666666h-128v42.666666h85.333333z" fill="#FFCDD2" p-id="1460"></path>
</svg>